<svg xmlns="http://www.w3.org/2000/svg" width="840" height="126" viewBox="0 0 840 126" role="img" aria-labelledby="title">
<title id="title">Language share by bytes in public non-fork repositories</title>
<rect x="1" y="1" width="838" height="124" rx="12" fill="#0d1117" stroke="#30363d"/>
<g font-family="system-ui,-apple-system,Segoe UI,sans-serif"><text x="26" y="31" font-size="12" fill="#b89aff" letter-spacing="2">PUBLIC CODE / LANGUAGE MIX</text><rect x="26.00" y="49" width="448.13" height="9" fill="#9575de"/><rect x="474.13" y="49" width="175.09" height="9" fill="#55b6c8"/><rect x="649.22" y="49" width="69.01" height="9" fill="#438cba"/><rect x="718.23" y="49" width="42.46" height="9" fill="#c084b6"/><rect x="760.69" y="49" width="20.46" height="9" fill="#ab985e"/><rect x="781.15" y="49" width="32.85" height="9" fill="#6f9d77"/><circle cx="30" cy="79" r="4" fill="#9575de"/><text x="42" y="83" font-size="12" fill="#f0f6fc">JavaScript <tspan fill="#919bab">56.9%</tspan></text><circle cx="293" cy="79" r="4" fill="#55b6c8"/><text x="305" y="83" font-size="12" fill="#f0f6fc">Python <tspan fill="#919bab">22.2%</tspan></text><circle cx="556" cy="79" r="4" fill="#438cba"/><text x="568" y="83" font-size="12" fill="#f0f6fc">TypeScript <tspan fill="#919bab">8.8%</tspan></text><circle cx="30" cy="103" r="4" fill="#c084b6"/><text x="42" y="107" font-size="12" fill="#f0f6fc">CSS <tspan fill="#919bab">5.4%</tspan></text><circle cx="293" cy="103" r="4" fill="#ab985e"/><text x="305" y="107" font-size="12" fill="#f0f6fc">PLpgSQL <tspan fill="#919bab">2.6%</tspan></text><circle cx="556" cy="103" r="4" fill="#6f9d77"/><text x="568" y="107" font-size="12" fill="#f0f6fc">Other <tspan fill="#919bab">4.2%</tspan></text></g></svg>